<mxfile host="app.diagrams.net" modified="2020-11-15T16:52:40.275Z" agent="5.0 (Macintosh; Intel Mac OS X 10_15_7) AppleWebKit/605.1.15 (KHTML, like Gecko) Version/14.0 Safari/605.1.15" etag="tiGKiaGCZwL80bkOi9p9" version="13.9.7" type="github">
  <diagram id="5zQ2Ieeh-A82oFYeTjSf" name="Page-1">
    <mxGraphModel dx="946" dy="1831" grid="1" gridSize="10" guides="1" tooltips="1" connect="1" arrows="1" fold="1" page="1" pageScale="1" pageWidth="827" pageHeight="1169" math="0" shadow="0">
      <root>
        <mxCell id="0" />
        <mxCell id="1" parent="0" />
        <mxCell id="ITq5NlS_kEKt5z7T02mQ-21" value="" style="shape=hexagon;perimeter=hexagonPerimeter2;whiteSpace=wrap;html=1;fixedSize=1;size=16;" parent="1" vertex="1">
          <mxGeometry x="200" y="-1060" width="120" height="80" as="geometry" />
        </mxCell>
        <mxCell id="ITq5NlS_kEKt5z7T02mQ-4" value="Direttore&lt;br&gt;Generale" style="shape=umlActor;verticalLabelPosition=bottom;verticalAlign=top;html=1;outlineConnect=0;fontStyle=1" parent="1" vertex="1">
          <mxGeometry x="40" y="-880" width="30" height="60" as="geometry" />
        </mxCell>
        <mxCell id="ITq5NlS_kEKt5z7T02mQ-5" value="Responsabile &lt;br&gt;Vendite" style="shape=umlActor;verticalLabelPosition=bottom;verticalAlign=top;html=1;outlineConnect=0;fontStyle=1" parent="1" vertex="1">
          <mxGeometry x="40" y="-390" width="30" height="60" as="geometry" />
        </mxCell>
        <mxCell id="ITq5NlS_kEKt5z7T02mQ-6" value="Magazziniere" style="shape=umlActor;verticalLabelPosition=bottom;verticalAlign=top;html=1;outlineConnect=0;fontStyle=1" parent="1" vertex="1">
          <mxGeometry x="710" y="-390" width="30" height="60" as="geometry" />
        </mxCell>
        <mxCell id="ITq5NlS_kEKt5z7T02mQ-7" value="Commesso" style="shape=umlActor;verticalLabelPosition=bottom;verticalAlign=top;html=1;outlineConnect=0;fontStyle=1" parent="1" vertex="1">
          <mxGeometry x="710" y="-880" width="30" height="60" as="geometry" />
        </mxCell>
        <mxCell id="ITq5NlS_kEKt5z7T02mQ-20" value="" style="whiteSpace=wrap;html=1;" parent="1" vertex="1">
          <mxGeometry x="160" y="-1020" width="453" height="890" as="geometry" />
        </mxCell>
        <mxCell id="ITq5NlS_kEKt5z7T02mQ-27" value="IT-Manager" style="text;strokeColor=none;fillColor=none;html=1;fontSize=16;fontStyle=1;verticalAlign=middle;align=center;" parent="1" vertex="1">
          <mxGeometry x="210" y="-1060" width="100" height="40" as="geometry" />
        </mxCell>
        <mxCell id="ITq5NlS_kEKt5z7T02mQ-28" value="&lt;b style=&quot;font-size: 12px&quot;&gt;&lt;br style=&quot;font-size: 12px&quot;&gt;&lt;br style=&quot;font-size: 12px&quot;&gt;&lt;br&gt;&lt;br style=&quot;font-size: 12px&quot;&gt;&lt;br style=&quot;font-size: 12px&quot;&gt;Login&lt;/b&gt;" style="ellipse;whiteSpace=wrap;html=1;fontSize=12;" parent="1" vertex="1">
          <mxGeometry x="379" y="-670" width="70" height="50" as="geometry" />
        </mxCell>
        <mxCell id="ITq5NlS_kEKt5z7T02mQ-35" value="&lt;span style=&quot;font-size: 12px&quot;&gt;&lt;b style=&quot;font-size: 12px&quot;&gt;&lt;br style=&quot;font-size: 12px&quot;&gt;&lt;br style=&quot;font-size: 12px&quot;&gt;&lt;br style=&quot;font-size: 12px&quot;&gt;&lt;br&gt;&lt;br style=&quot;font-size: 12px&quot;&gt;&lt;br style=&quot;font-size: 12px&quot;&gt;Registrazione&lt;br style=&quot;font-size: 12px&quot;&gt;Utente&lt;br style=&quot;font-size: 12px&quot;&gt;&lt;/b&gt;&lt;/span&gt;" style="ellipse;whiteSpace=wrap;html=1;fontSize=12;" parent="1" vertex="1">
          <mxGeometry x="379" y="-570" width="70" height="50" as="geometry" />
        </mxCell>
        <mxCell id="ITq5NlS_kEKt5z7T02mQ-36" value="&lt;b style=&quot;font-size: 12px&quot;&gt;&lt;br style=&quot;font-size: 12px&quot;&gt;&lt;br style=&quot;font-size: 12px&quot;&gt;&lt;br style=&quot;font-size: 12px&quot;&gt;&lt;br&gt;&lt;br style=&quot;font-size: 12px&quot;&gt;&lt;br style=&quot;font-size: 12px&quot;&gt;Aggiunta Prodotto&lt;br style=&quot;font-size: 12px&quot;&gt;&lt;/b&gt;" style="ellipse;whiteSpace=wrap;html=1;fontSize=12;" parent="1" vertex="1">
          <mxGeometry x="225" y="-340" width="70" height="50" as="geometry" />
        </mxCell>
        <mxCell id="ITq5NlS_kEKt5z7T02mQ-37" value="&lt;b style=&quot;font-size: 12px&quot;&gt;&lt;br style=&quot;font-size: 12px&quot;&gt;&lt;br style=&quot;font-size: 12px&quot;&gt;&lt;br style=&quot;font-size: 12px&quot;&gt;&lt;br&gt;&lt;br style=&quot;font-size: 12px&quot;&gt;&lt;br style=&quot;font-size: 12px&quot;&gt;Rimozione&lt;br style=&quot;font-size: 12px&quot;&gt;Prodotto&lt;br style=&quot;font-size: 12px&quot;&gt;&lt;/b&gt;" style="ellipse;whiteSpace=wrap;html=1;fontSize=12;" parent="1" vertex="1">
          <mxGeometry x="225" y="-250" width="70" height="50" as="geometry" />
        </mxCell>
        <mxCell id="ITq5NlS_kEKt5z7T02mQ-38" value="&lt;span style=&quot;font-size: 12px&quot;&gt;&lt;b&gt;&lt;br&gt;&lt;br&gt;&lt;br&gt;&lt;br&gt;&lt;br&gt;&lt;br&gt;Inserimento&lt;br&gt;nuova entrata&lt;br&gt;&lt;/b&gt;&lt;/span&gt;" style="ellipse;whiteSpace=wrap;html=1;fontSize=16;" parent="1" vertex="1">
          <mxGeometry x="344" y="-970" width="70" height="50" as="geometry" />
        </mxCell>
        <mxCell id="ITq5NlS_kEKt5z7T02mQ-39" value="&lt;span style=&quot;font-size: 12px&quot;&gt;&lt;b style=&quot;font-size: 12px&quot;&gt;&lt;br style=&quot;font-size: 12px&quot;&gt;&lt;br style=&quot;font-size: 12px&quot;&gt;&lt;br style=&quot;font-size: 12px&quot;&gt;&lt;br style=&quot;font-size: 12px&quot;&gt;&lt;br style=&quot;font-size: 12px&quot;&gt;&lt;br&gt;&lt;br&gt;Inserimento&lt;br style=&quot;font-size: 12px&quot;&gt;nuova uscita&lt;br style=&quot;font-size: 12px&quot;&gt;&lt;/b&gt;&lt;/span&gt;" style="ellipse;whiteSpace=wrap;html=1;fontSize=12;" parent="1" vertex="1">
          <mxGeometry x="200" y="-1010" width="70" height="50" as="geometry" />
        </mxCell>
        <mxCell id="ITq5NlS_kEKt5z7T02mQ-40" value="&lt;span style=&quot;font-size: 12px&quot;&gt;&lt;b style=&quot;font-size: 12px&quot;&gt;&lt;br style=&quot;font-size: 12px&quot;&gt;&lt;br style=&quot;font-size: 12px&quot;&gt;&lt;br style=&quot;font-size: 12px&quot;&gt;&lt;br style=&quot;font-size: 12px&quot;&gt;&lt;br&gt;&lt;br&gt;&lt;br style=&quot;font-size: 12px&quot;&gt;Modifica dati personali&lt;br style=&quot;font-size: 12px&quot;&gt;&lt;/b&gt;&lt;/span&gt;" style="ellipse;whiteSpace=wrap;html=1;fontSize=12;" parent="1" vertex="1">
          <mxGeometry x="379" y="-460" width="70" height="50" as="geometry" />
        </mxCell>
        <mxCell id="ITq5NlS_kEKt5z7T02mQ-41" value="&lt;span style=&quot;font-size: 12px&quot;&gt;&lt;b&gt;&lt;br&gt;&lt;br&gt;&lt;br&gt;&lt;br&gt;&lt;br&gt;Modifica stipendio&lt;br&gt;&lt;/b&gt;&lt;/span&gt;" style="ellipse;whiteSpace=wrap;html=1;fontSize=16;" parent="1" vertex="1">
          <mxGeometry x="270" y="-900" width="70" height="50" as="geometry" />
        </mxCell>
        <mxCell id="ITq5NlS_kEKt5z7T02mQ-42" value="&lt;span style=&quot;font-size: 12px&quot;&gt;&lt;b style=&quot;font-size: 12px&quot;&gt;&lt;br style=&quot;font-size: 12px&quot;&gt;&lt;br style=&quot;font-size: 12px&quot;&gt;&lt;br style=&quot;font-size: 12px&quot;&gt;&lt;br&gt;&lt;br style=&quot;font-size: 12px&quot;&gt;&lt;br style=&quot;font-size: 12px&quot;&gt;Invio messaggio&lt;br style=&quot;font-size: 12px&quot;&gt;&lt;/b&gt;&lt;/span&gt;" style="ellipse;whiteSpace=wrap;html=1;fontSize=12;" parent="1" vertex="1">
          <mxGeometry x="379" y="-770" width="70" height="50" as="geometry" />
        </mxCell>
        <mxCell id="ITq5NlS_kEKt5z7T02mQ-45" value="" style="endArrow=none;html=1;fontSize=12;entryX=0.5;entryY=0.5;entryDx=0;entryDy=0;entryPerimeter=0;exitX=1;exitY=0;exitDx=0;exitDy=0;" parent="1" source="ITq5NlS_kEKt5z7T02mQ-42" target="ITq5NlS_kEKt5z7T02mQ-7" edge="1">
          <mxGeometry width="50" height="50" relative="1" as="geometry">
            <mxPoint x="400" y="-680" as="sourcePoint" />
            <mxPoint x="450" y="-730" as="targetPoint" />
          </mxGeometry>
        </mxCell>
        <mxCell id="ITq5NlS_kEKt5z7T02mQ-47" value="" style="endArrow=none;html=1;fontSize=12;entryX=0.5;entryY=0.5;entryDx=0;entryDy=0;entryPerimeter=0;exitX=1;exitY=0;exitDx=0;exitDy=0;" parent="1" source="ITq5NlS_kEKt5z7T02mQ-28" target="ITq5NlS_kEKt5z7T02mQ-7" edge="1">
          <mxGeometry width="50" height="50" relative="1" as="geometry">
            <mxPoint x="459" y="-805" as="sourcePoint" />
            <mxPoint x="695" y="-910" as="targetPoint" />
          </mxGeometry>
        </mxCell>
        <mxCell id="ITq5NlS_kEKt5z7T02mQ-48" value="" style="endArrow=none;html=1;fontSize=12;entryX=0.5;entryY=0.5;entryDx=0;entryDy=0;entryPerimeter=0;exitX=1;exitY=0;exitDx=0;exitDy=0;" parent="1" source="ITq5NlS_kEKt5z7T02mQ-35" target="ITq5NlS_kEKt5z7T02mQ-7" edge="1">
          <mxGeometry width="50" height="50" relative="1" as="geometry">
            <mxPoint x="469" y="-795" as="sourcePoint" />
            <mxPoint x="705" y="-900" as="targetPoint" />
          </mxGeometry>
        </mxCell>
        <mxCell id="ITq5NlS_kEKt5z7T02mQ-49" value="" style="endArrow=none;html=1;fontSize=12;exitX=1;exitY=0;exitDx=0;exitDy=0;entryX=0.5;entryY=0.5;entryDx=0;entryDy=0;entryPerimeter=0;" parent="1" source="ITq5NlS_kEKt5z7T02mQ-40" target="ITq5NlS_kEKt5z7T02mQ-7" edge="1">
          <mxGeometry width="50" height="50" relative="1" as="geometry">
            <mxPoint x="479" y="-785" as="sourcePoint" />
            <mxPoint x="720" y="-930" as="targetPoint" />
          </mxGeometry>
        </mxCell>
        <mxCell id="ITq5NlS_kEKt5z7T02mQ-52" value="" style="endArrow=none;html=1;fontSize=12;exitX=1;exitY=1;exitDx=0;exitDy=0;entryX=0.5;entryY=0.5;entryDx=0;entryDy=0;entryPerimeter=0;" parent="1" source="ITq5NlS_kEKt5z7T02mQ-40" target="ITq5NlS_kEKt5z7T02mQ-6" edge="1">
          <mxGeometry width="50" height="50" relative="1" as="geometry">
            <mxPoint x="400" y="-680" as="sourcePoint" />
            <mxPoint x="450" y="-730" as="targetPoint" />
          </mxGeometry>
        </mxCell>
        <mxCell id="ITq5NlS_kEKt5z7T02mQ-53" value="" style="endArrow=none;html=1;fontSize=12;entryX=0.5;entryY=0.5;entryDx=0;entryDy=0;entryPerimeter=0;exitX=1;exitY=1;exitDx=0;exitDy=0;" parent="1" source="ITq5NlS_kEKt5z7T02mQ-35" target="ITq5NlS_kEKt5z7T02mQ-6" edge="1">
          <mxGeometry width="50" height="50" relative="1" as="geometry">
            <mxPoint x="489" y="-775" as="sourcePoint" />
            <mxPoint x="725" y="-880" as="targetPoint" />
          </mxGeometry>
        </mxCell>
        <mxCell id="ITq5NlS_kEKt5z7T02mQ-54" value="" style="endArrow=none;html=1;fontSize=12;entryX=0.5;entryY=0.5;entryDx=0;entryDy=0;entryPerimeter=0;exitX=1;exitY=1;exitDx=0;exitDy=0;" parent="1" source="ITq5NlS_kEKt5z7T02mQ-28" target="ITq5NlS_kEKt5z7T02mQ-6" edge="1">
          <mxGeometry width="50" height="50" relative="1" as="geometry">
            <mxPoint x="499" y="-765" as="sourcePoint" />
            <mxPoint x="735" y="-870" as="targetPoint" />
          </mxGeometry>
        </mxCell>
        <mxCell id="ITq5NlS_kEKt5z7T02mQ-55" value="" style="endArrow=none;html=1;fontSize=12;entryX=0.5;entryY=0.5;entryDx=0;entryDy=0;entryPerimeter=0;exitX=1;exitY=1;exitDx=0;exitDy=0;" parent="1" source="ITq5NlS_kEKt5z7T02mQ-42" target="ITq5NlS_kEKt5z7T02mQ-6" edge="1">
          <mxGeometry width="50" height="50" relative="1" as="geometry">
            <mxPoint x="509" y="-755" as="sourcePoint" />
            <mxPoint x="745" y="-860" as="targetPoint" />
          </mxGeometry>
        </mxCell>
        <mxCell id="ITq5NlS_kEKt5z7T02mQ-57" value="" style="endArrow=none;html=1;fontSize=12;entryX=0;entryY=1;entryDx=0;entryDy=0;exitX=0.5;exitY=0.5;exitDx=0;exitDy=0;exitPerimeter=0;" parent="1" source="ITq5NlS_kEKt5z7T02mQ-5" target="ITq5NlS_kEKt5z7T02mQ-40" edge="1">
          <mxGeometry width="50" height="50" relative="1" as="geometry">
            <mxPoint x="519" y="-745" as="sourcePoint" />
            <mxPoint x="755" y="-850" as="targetPoint" />
          </mxGeometry>
        </mxCell>
        <mxCell id="ITq5NlS_kEKt5z7T02mQ-58" value="" style="endArrow=none;html=1;fontSize=12;entryX=0;entryY=1;entryDx=0;entryDy=0;exitX=0.5;exitY=0.5;exitDx=0;exitDy=0;exitPerimeter=0;" parent="1" source="ITq5NlS_kEKt5z7T02mQ-5" target="ITq5NlS_kEKt5z7T02mQ-35" edge="1">
          <mxGeometry width="50" height="50" relative="1" as="geometry">
            <mxPoint x="85" y="-435" as="sourcePoint" />
            <mxPoint x="389" y="-525" as="targetPoint" />
          </mxGeometry>
        </mxCell>
        <mxCell id="ITq5NlS_kEKt5z7T02mQ-59" value="" style="endArrow=none;html=1;fontSize=12;exitX=0.5;exitY=0.5;exitDx=0;exitDy=0;exitPerimeter=0;entryX=0;entryY=1;entryDx=0;entryDy=0;" parent="1" source="ITq5NlS_kEKt5z7T02mQ-5" target="ITq5NlS_kEKt5z7T02mQ-28" edge="1">
          <mxGeometry width="50" height="50" relative="1" as="geometry">
            <mxPoint x="95" y="-425" as="sourcePoint" />
            <mxPoint x="399" y="-515" as="targetPoint" />
          </mxGeometry>
        </mxCell>
        <mxCell id="ITq5NlS_kEKt5z7T02mQ-60" value="" style="endArrow=none;html=1;fontSize=12;entryX=0;entryY=1;entryDx=0;entryDy=0;exitX=0.5;exitY=0.5;exitDx=0;exitDy=0;exitPerimeter=0;" parent="1" source="ITq5NlS_kEKt5z7T02mQ-5" target="ITq5NlS_kEKt5z7T02mQ-42" edge="1">
          <mxGeometry width="50" height="50" relative="1" as="geometry">
            <mxPoint x="105" y="-415" as="sourcePoint" />
            <mxPoint x="409" y="-505" as="targetPoint" />
          </mxGeometry>
        </mxCell>
        <mxCell id="ITq5NlS_kEKt5z7T02mQ-61" value="" style="endArrow=none;html=1;fontSize=12;entryX=0;entryY=0.5;entryDx=0;entryDy=0;exitX=0.5;exitY=0.5;exitDx=0;exitDy=0;exitPerimeter=0;" parent="1" source="ITq5NlS_kEKt5z7T02mQ-5" target="ITq5NlS_kEKt5z7T02mQ-36" edge="1">
          <mxGeometry width="50" height="50" relative="1" as="geometry">
            <mxPoint x="115" y="-405" as="sourcePoint" />
            <mxPoint x="419" y="-495" as="targetPoint" />
          </mxGeometry>
        </mxCell>
        <mxCell id="ITq5NlS_kEKt5z7T02mQ-62" value="" style="endArrow=none;html=1;fontSize=12;entryX=0;entryY=0.5;entryDx=0;entryDy=0;exitX=0.5;exitY=0.5;exitDx=0;exitDy=0;exitPerimeter=0;" parent="1" source="ITq5NlS_kEKt5z7T02mQ-5" target="ITq5NlS_kEKt5z7T02mQ-37" edge="1">
          <mxGeometry width="50" height="50" relative="1" as="geometry">
            <mxPoint x="125" y="-395" as="sourcePoint" />
            <mxPoint x="429" y="-485" as="targetPoint" />
          </mxGeometry>
        </mxCell>
        <mxCell id="ITq5NlS_kEKt5z7T02mQ-63" value="&lt;span style=&quot;color: rgba(0 , 0 , 0 , 0) ; font-family: monospace ; font-size: 0px ; background-color: rgb(248 , 249 , 250)&quot;&gt;c&lt;/span&gt;&lt;span style=&quot;color: rgba(0 , 0 , 0 , 0) ; font-family: monospace ; font-size: 0px ; background-color: rgb(248 , 249 , 250)&quot;&gt;%3CmxGraphModel%3E%3Croot%3E%3CmxCell%20id%3D%220%22%2F%3E%3CmxCell%20id%3D%221%22%20parent%3D%220%22%2F%3E%3CmxCell%20id%3D%222%22%20value%3D%22%22%20style%3D%22endArrow%3Dnone%3Bhtml%3D1%3BfontSize%3D12%3BentryX%3D0%3BentryY%3D0.5%3BentryDx%3D0%3BentryDy%3D0%3BexitX%3D0.5%3BexitY%3D0.5%3BexitDx%3D0%3BexitDy%3D0%3BexitPerimeter%3D0%3B%22%20edge%3D%221%22%20parent%3D%221%22%3E%3CmxGeometry%20width%3D%2250%22%20height%3D%2250%22%20relative%3D%221%22%20as%3D%22geometry%22%3E%3CmxPoint%20x%3D%2275%22%20y%3D%22-445%22%20as%3D%22sourcePoint%22%2F%3E%3CmxPoint%20x%3D%22379%22%20y%3D%22-535%22%20as%3D%22targetPoint%22%2F%3E%3C%2FmxGeometry%3E%3C%2FmxCell%3E%3C%2Froot%3E%3C%2FmxGraphModel%3E&lt;/span&gt;" style="endArrow=none;html=1;fontSize=12;entryX=0;entryY=0.5;entryDx=0;entryDy=0;exitX=0.5;exitY=0.5;exitDx=0;exitDy=0;exitPerimeter=0;" parent="1" source="ITq5NlS_kEKt5z7T02mQ-4" target="ITq5NlS_kEKt5z7T02mQ-41" edge="1">
          <mxGeometry width="50" height="50" relative="1" as="geometry">
            <mxPoint x="135" y="-385" as="sourcePoint" />
            <mxPoint x="439" y="-475" as="targetPoint" />
          </mxGeometry>
        </mxCell>
        <mxCell id="ITq5NlS_kEKt5z7T02mQ-65" value="&lt;span style=&quot;color: rgba(0 , 0 , 0 , 0) ; font-family: monospace ; font-size: 0px ; background-color: rgb(248 , 249 , 250)&quot;&gt;c&lt;/span&gt;&lt;span style=&quot;color: rgba(0 , 0 , 0 , 0) ; font-family: monospace ; font-size: 0px ; background-color: rgb(248 , 249 , 250)&quot;&gt;%3CmxGraphModel%3E%3Croot%3E%3CmxCell%20id%3D%220%22%2F%3E%3CmxCell%20id%3D%221%22%20parent%3D%220%22%2F%3E%3CmxCell%20id%3D%222%22%20value%3D%22%22%20style%3D%22endArrow%3Dnone%3Bhtml%3D1%3BfontSize%3D12%3BentryX%3D0%3BentryY%3D0.5%3BentryDx%3D0%3BentryDy%3D0%3BexitX%3D0.5%3BexitY%3D0.5%3BexitDx%3D0%3BexitDy%3D0%3BexitPerimeter%3D0%3B%22%20edge%3D%221%22%20parent%3D%221%22%3E%3CmxGeometry%20width%3D%2250%22%20height%3D%2250%22%20relative%3D%221%22%20as%3D%22geometry%22%3E%3CmxPoint%20x%3D%2275%22%20y%3D%22-445%22%20as%3D%22sourcePoint%22%2F%3E%3CmxPoint%20x%3D%22379%22%20y%3D%22-535%22%20as%3D%22targetPoint%22%2F%3E%3C%2FmxGeometry%3E%3C%2FmxCell%3E%3C%2Froot%3E%3C%2FmxGraphModel%3E&lt;/span&gt;" style="endArrow=none;html=1;fontSize=12;entryX=0;entryY=0.5;entryDx=0;entryDy=0;exitX=0.5;exitY=0.5;exitDx=0;exitDy=0;exitPerimeter=0;" parent="1" source="ITq5NlS_kEKt5z7T02mQ-4" target="ITq5NlS_kEKt5z7T02mQ-38" edge="1">
          <mxGeometry width="50" height="50" relative="1" as="geometry">
            <mxPoint x="75" y="-900" as="sourcePoint" />
            <mxPoint x="200" y="-965" as="targetPoint" />
          </mxGeometry>
        </mxCell>
        <mxCell id="ITq5NlS_kEKt5z7T02mQ-66" value="&lt;span style=&quot;color: rgba(0 , 0 , 0 , 0) ; font-family: monospace ; font-size: 0px ; background-color: rgb(248 , 249 , 250)&quot;&gt;c&lt;/span&gt;&lt;span style=&quot;color: rgba(0 , 0 , 0 , 0) ; font-family: monospace ; font-size: 0px ; background-color: rgb(248 , 249 , 250)&quot;&gt;%3CmxGraphModel%3E%3Croot%3E%3CmxCell%20id%3D%220%22%2F%3E%3CmxCell%20id%3D%221%22%20parent%3D%220%22%2F%3E%3CmxCell%20id%3D%222%22%20value%3D%22%22%20style%3D%22endArrow%3Dnone%3Bhtml%3D1%3BfontSize%3D12%3BentryX%3D0%3BentryY%3D0.5%3BentryDx%3D0%3BentryDy%3D0%3BexitX%3D0.5%3BexitY%3D0.5%3BexitDx%3D0%3BexitDy%3D0%3BexitPerimeter%3D0%3B%22%20edge%3D%221%22%20parent%3D%221%22%3E%3CmxGeometry%20width%3D%2250%22%20height%3D%2250%22%20relative%3D%221%22%20as%3D%22geometry%22%3E%3CmxPoint%20x%3D%2275%22%20y%3D%22-445%22%20as%3D%22sourcePoint%22%2F%3E%3CmxPoint%20x%3D%22379%22%20y%3D%22-535%22%20as%3D%22targetPoint%22%2F%3E%3C%2FmxGeometry%3E%3C%2FmxCell%3E%3C%2Froot%3E%3C%2FmxGraphModel%3E&lt;/span&gt;" style="endArrow=none;html=1;fontSize=12;entryX=0;entryY=0.5;entryDx=0;entryDy=0;exitX=0.5;exitY=0.5;exitDx=0;exitDy=0;exitPerimeter=0;" parent="1" source="ITq5NlS_kEKt5z7T02mQ-4" target="ITq5NlS_kEKt5z7T02mQ-39" edge="1">
          <mxGeometry width="50" height="50" relative="1" as="geometry">
            <mxPoint x="85" y="-890" as="sourcePoint" />
            <mxPoint x="210" y="-955" as="targetPoint" />
          </mxGeometry>
        </mxCell>
        <mxCell id="ITq5NlS_kEKt5z7T02mQ-67" value="&lt;span style=&quot;color: rgba(0 , 0 , 0 , 0) ; font-family: monospace ; font-size: 0px ; background-color: rgb(248 , 249 , 250)&quot;&gt;c&lt;/span&gt;&lt;span style=&quot;color: rgba(0 , 0 , 0 , 0) ; font-family: monospace ; font-size: 0px ; background-color: rgb(248 , 249 , 250)&quot;&gt;%3CmxGraphModel%3E%3Croot%3E%3CmxCell%20id%3D%220%22%2F%3E%3CmxCell%20id%3D%221%22%20parent%3D%220%22%2F%3E%3CmxCell%20id%3D%222%22%20value%3D%22%22%20style%3D%22endArrow%3Dnone%3Bhtml%3D1%3BfontSize%3D12%3BentryX%3D0%3BentryY%3D0.5%3BentryDx%3D0%3BentryDy%3D0%3BexitX%3D0.5%3BexitY%3D0.5%3BexitDx%3D0%3BexitDy%3D0%3BexitPerimeter%3D0%3B%22%20edge%3D%221%22%20parent%3D%221%22%3E%3CmxGeometry%20width%3D%2250%22%20height%3D%2250%22%20relative%3D%221%22%20as%3D%22geometry%22%3E%3CmxPoint%20x%3D%2275%22%20y%3D%22-445%22%20as%3D%22sourcePoint%22%2F%3E%3CmxPoint%20x%3D%22379%22%20y%3D%22-535%22%20as%3D%22targetPoint%22%2F%3E%3C%2FmxGeometry%3E%3C%2FmxCell%3E%3C%2Froot%3E%3C%2FmxGraphModel%3E&lt;/span&gt;" style="endArrow=none;html=1;fontSize=12;entryX=0;entryY=0;entryDx=0;entryDy=0;exitX=0.5;exitY=0.5;exitDx=0;exitDy=0;exitPerimeter=0;" parent="1" source="ITq5NlS_kEKt5z7T02mQ-4" target="ITq5NlS_kEKt5z7T02mQ-42" edge="1">
          <mxGeometry width="50" height="50" relative="1" as="geometry">
            <mxPoint x="95" y="-880" as="sourcePoint" />
            <mxPoint x="220" y="-945" as="targetPoint" />
          </mxGeometry>
        </mxCell>
        <mxCell id="ITq5NlS_kEKt5z7T02mQ-69" value="&lt;span style=&quot;color: rgba(0 , 0 , 0 , 0) ; font-family: monospace ; font-size: 0px ; background-color: rgb(248 , 249 , 250)&quot;&gt;c&lt;/span&gt;&lt;span style=&quot;color: rgba(0 , 0 , 0 , 0) ; font-family: monospace ; font-size: 0px ; background-color: rgb(248 , 249 , 250)&quot;&gt;%3CmxGraphModel%3E%3Croot%3E%3CmxCell%20id%3D%220%22%2F%3E%3CmxCell%20id%3D%221%22%20parent%3D%220%22%2F%3E%3CmxCell%20id%3D%222%22%20value%3D%22%22%20style%3D%22endArrow%3Dnone%3Bhtml%3D1%3BfontSize%3D12%3BentryX%3D0%3BentryY%3D0.5%3BentryDx%3D0%3BentryDy%3D0%3BexitX%3D0.5%3BexitY%3D0.5%3BexitDx%3D0%3BexitDy%3D0%3BexitPerimeter%3D0%3B%22%20edge%3D%221%22%20parent%3D%221%22%3E%3CmxGeometry%20width%3D%2250%22%20height%3D%2250%22%20relative%3D%221%22%20as%3D%22geometry%22%3E%3CmxPoint%20x%3D%2275%22%20y%3D%22-445%22%20as%3D%22sourcePoint%22%2F%3E%3CmxPoint%20x%3D%22379%22%20y%3D%22-535%22%20as%3D%22targetPoint%22%2F%3E%3C%2FmxGeometry%3E%3C%2FmxCell%3E%3C%2Froot%3E%3C%2FmxGraphModel%3E&lt;/span&gt;" style="endArrow=none;html=1;fontSize=12;entryX=0;entryY=0;entryDx=0;entryDy=0;exitX=0.5;exitY=0.5;exitDx=0;exitDy=0;exitPerimeter=0;" parent="1" source="ITq5NlS_kEKt5z7T02mQ-4" target="ITq5NlS_kEKt5z7T02mQ-28" edge="1">
          <mxGeometry width="50" height="50" relative="1" as="geometry">
            <mxPoint x="105" y="-870" as="sourcePoint" />
            <mxPoint x="230" y="-935" as="targetPoint" />
          </mxGeometry>
        </mxCell>
        <mxCell id="ITq5NlS_kEKt5z7T02mQ-71" value="&lt;span style=&quot;color: rgba(0 , 0 , 0 , 0) ; font-family: monospace ; font-size: 0px ; background-color: rgb(248 , 249 , 250)&quot;&gt;c&lt;/span&gt;&lt;span style=&quot;color: rgba(0 , 0 , 0 , 0) ; font-family: monospace ; font-size: 0px ; background-color: rgb(248 , 249 , 250)&quot;&gt;%3CmxGraphModel%3E%3Croot%3E%3CmxCell%20id%3D%220%22%2F%3E%3CmxCell%20id%3D%221%22%20parent%3D%220%22%2F%3E%3CmxCell%20id%3D%222%22%20value%3D%22%22%20style%3D%22endArrow%3Dnone%3Bhtml%3D1%3BfontSize%3D12%3BentryX%3D0%3BentryY%3D0.5%3BentryDx%3D0%3BentryDy%3D0%3BexitX%3D0.5%3BexitY%3D0.5%3BexitDx%3D0%3BexitDy%3D0%3BexitPerimeter%3D0%3B%22%20edge%3D%221%22%20parent%3D%221%22%3E%3CmxGeometry%20width%3D%2250%22%20height%3D%2250%22%20relative%3D%221%22%20as%3D%22geometry%22%3E%3CmxPoint%20x%3D%2275%22%20y%3D%22-445%22%20as%3D%22sourcePoint%22%2F%3E%3CmxPoint%20x%3D%22379%22%20y%3D%22-535%22%20as%3D%22targetPoint%22%2F%3E%3C%2FmxGeometry%3E%3C%2FmxCell%3E%3C%2Froot%3E%3C%2FmxGraphModel%3E&lt;/span&gt;" style="endArrow=none;html=1;fontSize=12;entryX=0;entryY=0;entryDx=0;entryDy=0;exitX=0.5;exitY=0.5;exitDx=0;exitDy=0;exitPerimeter=0;" parent="1" source="ITq5NlS_kEKt5z7T02mQ-4" target="ITq5NlS_kEKt5z7T02mQ-35" edge="1">
          <mxGeometry width="50" height="50" relative="1" as="geometry">
            <mxPoint x="115" y="-860" as="sourcePoint" />
            <mxPoint x="240" y="-925" as="targetPoint" />
          </mxGeometry>
        </mxCell>
        <mxCell id="ITq5NlS_kEKt5z7T02mQ-72" value="&lt;span style=&quot;font-family: monospace; font-size: 0px; background-color: rgb(248, 249, 250);&quot;&gt;c&lt;/span&gt;&lt;span style=&quot;font-family: monospace; font-size: 0px; background-color: rgb(248, 249, 250);&quot;&gt;%3CmxGraphModel%3E%3Croot%3E%3CmxCell%20id%3D%220%22%2F%3E%3CmxCell%20id%3D%221%22%20parent%3D%220%22%2F%3E%3CmxCell%20id%3D%222%22%20value%3D%22%22%20style%3D%22endArrow%3Dnone%3Bhtml%3D1%3BfontSize%3D12%3BentryX%3D0%3BentryY%3D0.5%3BentryDx%3D0%3BentryDy%3D0%3BexitX%3D0.5%3BexitY%3D0.5%3BexitDx%3D0%3BexitDy%3D0%3BexitPerimeter%3D0%3B%22%20edge%3D%221%22%20parent%3D%221%22%3E%3CmxGeometry%20width%3D%2250%22%20height%3D%2250%22%20relative%3D%221%22%20as%3D%22geometry%22%3E%3CmxPoint%20x%3D%2275%22%20y%3D%22-445%22%20as%3D%22sourcePoint%22%2F%3E%3CmxPoint%20x%3D%22379%22%20y%3D%22-535%22%20as%3D%22targetPoint%22%2F%3E%3C%2FmxGeometry%3E%3C%2FmxCell%3E%3C%2Froot%3E%3C%2FmxGraphModel%3E&lt;/span&gt;" style="endArrow=none;html=1;fontSize=12;entryX=0;entryY=0;entryDx=0;entryDy=0;exitX=0.5;exitY=0.5;exitDx=0;exitDy=0;exitPerimeter=0;fontColor=#FF9999;" parent="1" source="ITq5NlS_kEKt5z7T02mQ-4" target="ITq5NlS_kEKt5z7T02mQ-40" edge="1">
          <mxGeometry width="50" height="50" relative="1" as="geometry">
            <mxPoint x="125" y="-850" as="sourcePoint" />
            <mxPoint x="250" y="-915" as="targetPoint" />
          </mxGeometry>
        </mxCell>
      </root>
    </mxGraphModel>
  </diagram>
</mxfile>
